# xmcd
#
# Track frame offsets:
#	150
#	36189
#	67590
#	88698
#	134611
#	167172
#	197143
#	254672
#	296310
#	326105
#
# Disc length: 4747 seconds
#
# Revision: 1
# Processed by: cddbd v1.5.2PL0 Copyright (c) Steve Scherf et al.
# Submitted via: audiograbber 1.83.01
#
DISCID=9312890a
DTITLE=Grateful Dead - 76-10-03 Cobo Arena, Detroit MI
DYEAR=1900
DGENRE=
TTITLE0=Samson and Delilah
TTITLE1=It Must Have Been The Roses
TTITLE2=Minglewood Blues
TTITLE3=Mississippi Half-Step
TTITLE4=Samson and Delilah
TTITLE5=Ship Of Fools
TTITLE6=Dancing In The Streets
TTITLE7=Wharf Rat
TTITLE8=Dancing In The Streets
TTITLE9=Around and Around
EXTD=
EXTT0=
EXTT1=
EXTT2=
EXTT3=
EXTT4=
EXTT5=
EXTT6=
EXTT7=
EXTT8=
EXTT9=
PLAYORDER=
